<svg id="visual" viewBox="0 0 900 600" width="900" height="600" xmlns="http://www.w3.org/2000/svg" xmlns:xlink="http://www.w3.org/1999/xlink" version="1.1"><g stroke-width="1" stroke-linejoin="bevel"><path d="M397 306L398 416L477 364Z" fill="#242e42" stroke="#242e42"></path><path d="M477 364L522 329L397 306Z" fill="#5874a5" stroke="#5874a5"></path><path d="M397 306L298 380L398 416Z" fill="#78a4e8" stroke="#78a4e8"></path><path d="M282 504L395 496L398 416Z" fill="#1a2130" stroke="#1a2130"></path><path d="M398 416L501 506L477 364Z" fill="#2e3b54" stroke="#2e3b54"></path><path d="M477 364L639 437L522 329Z" fill="#2e3b54" stroke="#2e3b54"></path><path d="M397 306L275 302L298 380Z" fill="#42567b" stroke="#42567b"></path><path d="M395 496L501 506L398 416Z" fill="#83b4ff" stroke="#83b4ff"></path><path d="M515 200L387 195L397 306Z" fill="#1a2130" stroke="#1a2130"></path><path d="M397 306L387 195L275 302Z" fill="#4d6590" stroke="#4d6590"></path><path d="M522 329L515 200L397 306Z" fill="#83b4ff" stroke="#83b4ff"></path><path d="M639 437L603 305L522 329Z" fill="#5874a5" stroke="#5874a5"></path><path d="M522 329L603 305L515 200Z" fill="#1a2130" stroke="#1a2130"></path><path d="M298 380L282 504L398 416Z" fill="#83b4ff" stroke="#83b4ff"></path><path d="M395 496L470 600L501 506Z" fill="#42567b" stroke="#42567b"></path><path d="M193 469L282 504L298 380Z" fill="#83b4ff" stroke="#83b4ff"></path><path d="M470 600L562 510L501 506Z" fill="#4d6590" stroke="#4d6590"></path><path d="M501 506L562 510L477 364Z" fill="#78a4e8" stroke="#78a4e8"></path><path d="M263 206L226 265L275 302Z" fill="#83b4ff" stroke="#83b4ff"></path><path d="M275 302L191 367L298 380Z" fill="#5874a5" stroke="#5874a5"></path><path d="M387 195L263 206L275 302Z" fill="#78a4e8" stroke="#78a4e8"></path><path d="M226 265L191 367L275 302Z" fill="#6d93d1" stroke="#6d93d1"></path><path d="M536 125L363 138L387 195Z" fill="#2e3b54" stroke="#2e3b54"></path><path d="M387 195L363 138L263 206Z" fill="#83b4ff" stroke="#83b4ff"></path><path d="M562 510L639 437L477 364Z" fill="#42567b" stroke="#42567b"></path><path d="M317 600L382 600L395 496Z" fill="#42567b" stroke="#42567b"></path><path d="M382 600L470 600L395 496Z" fill="#1a2130" stroke="#1a2130"></path><path d="M562 510L700 477L639 437Z" fill="#1a2130" stroke="#1a2130"></path><path d="M191 367L193 469L298 380Z" fill="#83b4ff" stroke="#83b4ff"></path><path d="M282 504L317 600L395 496Z" fill="#5874a5" stroke="#5874a5"></path><path d="M639 437L666 399L603 305Z" fill="#5874a5" stroke="#5874a5"></path><path d="M222 600L317 600L282 504Z" fill="#4d6590" stroke="#4d6590"></path><path d="M622 187L536 125L515 200Z" fill="#4d6590" stroke="#4d6590"></path><path d="M515 200L536 125L387 195Z" fill="#242e42" stroke="#242e42"></path><path d="M622 187L515 200L603 305Z" fill="#2e3b54" stroke="#2e3b54"></path><path d="M263 206L185 232L226 265Z" fill="#1a2130" stroke="#1a2130"></path><path d="M226 265L134 298L191 367Z" fill="#78a4e8" stroke="#78a4e8"></path><path d="M191 367L83 386L193 469Z" fill="#6284bb" stroke="#6284bb"></path><path d="M204 62L185 232L263 206Z" fill="#1a2130" stroke="#1a2130"></path><path d="M673 268L622 187L603 305Z" fill="#384868" stroke="#384868"></path><path d="M666 399L673 268L603 305Z" fill="#4d6590" stroke="#4d6590"></path><path d="M622 187L566 113L536 125Z" fill="#5874a5" stroke="#5874a5"></path><path d="M310 0L276 93L363 138Z" fill="#83b4ff" stroke="#83b4ff"></path><path d="M185 232L134 298L226 265Z" fill="#384868" stroke="#384868"></path><path d="M470 600L604 600L562 510Z" fill="#42567b" stroke="#42567b"></path><path d="M639 437L700 477L666 399Z" fill="#242e42" stroke="#242e42"></path><path d="M411 0L363 138L536 125Z" fill="#2e3b54" stroke="#2e3b54"></path><path d="M363 138L276 93L263 206Z" fill="#83b4ff" stroke="#83b4ff"></path><path d="M185 232L112 227L134 298Z" fill="#2e3b54" stroke="#2e3b54"></path><path d="M604 600L700 477L562 510Z" fill="#83b4ff" stroke="#83b4ff"></path><path d="M666 399L763 418L673 268Z" fill="#42567b" stroke="#42567b"></path><path d="M193 469L222 600L282 504Z" fill="#78a4e8" stroke="#78a4e8"></path><path d="M70 600L222 600L193 469Z" fill="#6d93d1" stroke="#6d93d1"></path><path d="M622 187L668 162L566 113Z" fill="#6d93d1" stroke="#6d93d1"></path><path d="M673 268L668 162L622 187Z" fill="#384868" stroke="#384868"></path><path d="M714 137L668 162L673 268Z" fill="#384868" stroke="#384868"></path><path d="M204 62L112 227L185 232Z" fill="#4d6590" stroke="#4d6590"></path><path d="M134 298L83 386L191 367Z" fill="#83b4ff" stroke="#83b4ff"></path><path d="M0 279L83 386L134 298Z" fill="#1a2130" stroke="#1a2130"></path><path d="M818 490L763 418L700 477Z" fill="#6d93d1" stroke="#6d93d1"></path><path d="M700 477L763 418L666 399Z" fill="#83b4ff" stroke="#83b4ff"></path><path d="M83 386L80 470L193 469Z" fill="#242e42" stroke="#242e42"></path><path d="M484 0L536 125L566 113Z" fill="#4d6590" stroke="#4d6590"></path><path d="M484 0L411 0L536 125Z" fill="#5874a5" stroke="#5874a5"></path><path d="M581 0L484 0L566 113Z" fill="#1a2130" stroke="#1a2130"></path><path d="M310 0L204 62L276 93Z" fill="#4d6590" stroke="#4d6590"></path><path d="M276 93L204 62L263 206Z" fill="#4d6590" stroke="#4d6590"></path><path d="M604 600L701 600L700 477Z" fill="#83b4ff" stroke="#83b4ff"></path><path d="M834 195L714 137L673 268Z" fill="#6284bb" stroke="#6284bb"></path><path d="M668 162L678 0L566 113Z" fill="#83b4ff" stroke="#83b4ff"></path><path d="M411 0L310 0L363 138Z" fill="#384868" stroke="#384868"></path><path d="M678 0L581 0L566 113Z" fill="#242e42" stroke="#242e42"></path><path d="M900 332L830 286L900 398Z" fill="#78a4e8" stroke="#78a4e8"></path><path d="M763 418L830 286L673 268Z" fill="#2e3b54" stroke="#2e3b54"></path><path d="M790 600L818 490L700 477Z" fill="#6d93d1" stroke="#6d93d1"></path><path d="M0 279L0 401L83 386Z" fill="#83b4ff" stroke="#83b4ff"></path><path d="M83 386L0 401L80 470Z" fill="#242e42" stroke="#242e42"></path><path d="M80 470L70 600L193 469Z" fill="#83b4ff" stroke="#83b4ff"></path><path d="M0 279L134 298L112 227Z" fill="#6d93d1" stroke="#6d93d1"></path><path d="M0 509L70 600L80 470Z" fill="#83b4ff" stroke="#83b4ff"></path><path d="M0 188L0 279L112 227Z" fill="#6d93d1" stroke="#6d93d1"></path><path d="M310 0L184 0L204 62Z" fill="#6284bb" stroke="#6284bb"></path><path d="M204 62L102 61L112 227Z" fill="#2e3b54" stroke="#2e3b54"></path><path d="M834 195L774 111L714 137Z" fill="#83b4ff" stroke="#83b4ff"></path><path d="M714 137L678 0L668 162Z" fill="#4d6590" stroke="#4d6590"></path><path d="M138 0L102 61L204 62Z" fill="#5874a5" stroke="#5874a5"></path><path d="M701 600L790 600L700 477Z" fill="#83b4ff" stroke="#83b4ff"></path><path d="M0 401L0 509L80 470Z" fill="#4d6590" stroke="#4d6590"></path><path d="M774 111L678 0L714 137Z" fill="#6d93d1" stroke="#6d93d1"></path><path d="M830 286L834 195L673 268Z" fill="#4d6590" stroke="#4d6590"></path><path d="M0 138L0 188L112 227Z" fill="#42567b" stroke="#42567b"></path><path d="M184 0L138 0L204 62Z" fill="#2e3b54" stroke="#2e3b54"></path><path d="M102 61L0 138L112 227Z" fill="#78a4e8" stroke="#78a4e8"></path><path d="M0 0L0 138L102 61Z" fill="#83b4ff" stroke="#83b4ff"></path><path d="M0 509L0 600L70 600Z" fill="#42567b" stroke="#42567b"></path><path d="M900 398L830 286L763 418Z" fill="#4d6590" stroke="#4d6590"></path><path d="M830 286L900 192L834 195Z" fill="#384868" stroke="#384868"></path><path d="M900 398L763 418L818 490Z" fill="#6d93d1" stroke="#6d93d1"></path><path d="M900 478L900 398L818 490Z" fill="#242e42" stroke="#242e42"></path><path d="M900 600L900 478L818 490Z" fill="#5874a5" stroke="#5874a5"></path><path d="M900 332L900 192L830 286Z" fill="#2e3b54" stroke="#2e3b54"></path><path d="M834 195L900 62L774 111Z" fill="#78a4e8" stroke="#78a4e8"></path><path d="M774 111L839 0L678 0Z" fill="#2e3b54" stroke="#2e3b54"></path><path d="M790 600L900 600L818 490Z" fill="#5874a5" stroke="#5874a5"></path><path d="M138 0L0 0L102 61Z" fill="#384868" stroke="#384868"></path><path d="M900 62L839 0L774 111Z" fill="#242e42" stroke="#242e42"></path><path d="M900 192L900 62L834 195Z" fill="#6d93d1" stroke="#6d93d1"></path><path d="M900 62L900 0L839 0Z" fill="#384868" stroke="#384868"></path></g></svg>